<svg width="375" height="371" viewBox="0 0 375 371" fill="none" xmlns="http://www.w3.org/2000/svg">
<path d="M295.5 191.6C320.3 161 361.2 176.3 372.5 153.9C385.1 128.8 345.8 85.6 327.6 65.6C300.9 36.3 277.8 10.9 240.1 6.99997C197.4 2.49997 147 26.6 140.7 58.2C134.6 88.8 174.2 105.8 167.3 134.1C158.2 170.9 85.2 166.8 80.7 195.1C76.7 220.5 130.9 253.5 178.1 262.8C190 265.1 247.5 276.4 274.1 246C290.4 227.4 278.9 212.1 295.5 191.6Z" fill="url(#paint0_linear_1_28)"/>
<path opacity="0.56" d="M40.6999 237C40.5999 142.5 144.3 82.5 230 107.8C292.3 126.1 321.3 178.1 328.3 191.8C347.6 229.6 369.9 308.8 325.7 347.4C297.7 371.8 251.9 378 219.6 358.3C206 350 196 337.6 191.7 322.2C189.1 313 189.7 301.9 179.2 297.7C174.4 295.8 168.9 295.8 163.8 297C140.5 302.7 125.6 331 99.8 328.1C84.5 326.4 74 313 64.8 302C49.6 283.7 40.6999 260.9 40.6999 237Z" fill="#FFDD95"/>
<path d="M1.20001 234.2C6.60001 213.5 46.9 221.9 73.5 187.7C86.5 171 96.3 144 89.6 119.6C78.6 79.5 31.2 76.2 31.4 51.4C31.6 26.2 79.5 -6.70001 117.3 1.89999C161.1 11.8 165.2 71.2 209.6 76.4C236.4 79.6 249.8 59.7 266.2 67.8C290.1 79.6 289.5 129.7 283.5 159.4C272.9 212.1 236.4 244.2 223.4 255.3C212.8 264.4 138.3 326.1 64.8 300C29.4 287.4 -4.29999 254.8 1.20001 234.2Z" fill="url(#paint1_linear_1_28)"/>
<path opacity="0.56" d="M67.3001 109.4C65.6001 103.8 62.4001 98.7 58.4001 95.6C51.7001 90.5 42.2001 88.3 33.8001 89.6C24.8001 91 12.9001 99.7 18.9001 110.1C21.7001 114.9 27 116.2 32.1 117.1C33.7 117.4 35.3 117.7 36.5 118.8C38 120.1 38.3001 122.3 38.8001 124.2C40.9001 131.3 48.5001 138.4 56.4001 136.2C68.5001 132.9 70.7001 120.2 67.3001 109.4Z" fill="#FFDD95"/>
<path d="M48.4 148.8C48.4 148.3 48.3 148.1 48.3 147.4C48.1 146 48 145.1 47.1 143.8C45.7 141.6 43.8 140.2 41.3 139.4C41.3 139.4 41.3 139.4 41.2 139.4C41 139.3 40.7 139.2 40.5 139.1C38.9 138.7 37.3 138.7 35.8 139.1C34.3 139.6 32.9 140.3 31.7 141.4C31.4 141.7 31.2 142.1 30.9 142.4C30.6 142.7 30.3 143.1 30.1 143.4C29.7 144 29.3 145.1 29.1 145.8C28.8 146.6 28.8 147.6 28.8 148.5C28.8 150.3 29.1 151 29.7 152.5C30.2 153.8 30.2 153.7 31 154.7C31.8 155.8 31.7 155.7 32.8 156.5C33.2 156.8 33.5 157.1 33.9 157.4C35.3 158.3 37 158.6 38.6 158.7C40.3 158.8 42.2 158.1 43.6 157.3C44.5 156.8 45 156.4 45.6 155.7C46.1 155.2 46.7 154.4 47.1 153.7C47.8 152.5 48.1 151.3 48.2 150.1C48.3 149.7 48.4 149.2 48.4 148.8Z" fill="#FFDD95"/>
<path d="M30.6 128.7C30.4 128.1 30.1 127.5 29.7 127C29.6 126.8 29.4 126.6 29.2 126.4C29 126.2 28.9 126.1 28.7 126C28.4 125.7 28 125.5 27.6 125.4C27.2 125.2 26.8 125.1 26.4 125.1C25.8 125 25.1 125 24.5 125.2C24.1 125.3 23.7 125.5 23.3 125.7C23.1 125.8 22.4 126.3 22.3 126.5C22.2 126.6 21.6 127.4 21.5 127.5C21.4 127.7 21 128.5 21 128.7C20.9 129.1 20.9 129.6 20.8 130C20.9 130.4 20.9 130.9 21 131.3C21.2 131.9 21.5 132.5 21.9 133C22.1 133.4 22.4 133.7 22.8 133.9C23.1 134.2 23.5 134.4 23.9 134.5C24.3 134.7 24.7 134.8 25.2 134.8C25.6 134.9 26.1 134.9 26.5 134.8C27.2 134.8 27.8 134.6 28.3 134.2C28.6 133.9 29 133.7 29.3 133.4C29.6 133.1 29.8 132.7 30.1 132.4C30.3 132 30.4 131.6 30.6 131.2C30.7 130.8 30.7 130.3 30.8 129.9C30.7 129.6 30.6 129.1 30.6 128.7Z" fill="#FFDD95"/>
<path d="M366.2 215.6C365.8 205.6 360.6 195.6 354.2 188.1C350.4 183.6 341.6 174.5 336 181.6C332.4 186.2 336.6 191.3 338.7 195.5C341.3 200.7 343.7 206.4 345.9 211.9C347.7 216.6 348.9 222.9 353.9 225.5C357.9 227.6 362.1 225.6 364.4 222.1C365.9 220.1 366.3 217.9 366.2 215.6Z" fill="url(#paint2_linear_1_28)"/>
<path d="M357.5 173.1C354.6 171.5 352 170.6 348.7 171.9C347 172.6 347.1 174.9 348.6 175.6C351.2 176.9 362.9 189.5 364.6 180.6C365.4 176.6 360.3 174.6 357.5 173.1Z" fill="url(#paint3_linear_1_28)"/>
<path d="M166 338C173.732 338 180 331.732 180 324C180 316.268 173.732 310 166 310C158.268 310 152 316.268 152 324C152 331.732 158.268 338 166 338Z" fill="url(#paint4_linear_1_28)"/>
<path d="M185 345C187.761 345 190 342.761 190 340C190 337.239 187.761 335 185 335C182.239 335 180 337.239 180 340C180 342.761 182.239 345 185 345Z" fill="url(#paint5_linear_1_28)"/>
<path d="M170 354C172.209 354 174 352.209 174 350C174 347.791 172.209 346 170 346C167.791 346 166 347.791 166 350C166 352.209 167.791 354 170 354Z" fill="url(#paint6_linear_1_28)"/>
<path d="M329.5 43.5C336.68 43.5 342.5 37.6797 342.5 30.5C342.5 23.3203 336.68 17.5 329.5 17.5C322.32 17.5 316.5 23.3203 316.5 30.5C316.5 37.6797 322.32 43.5 329.5 43.5Z" stroke="url(#paint7_linear_1_28)" stroke-width="3.3333" stroke-miterlimit="10"/>
<path d="M342.3 52.3L344.9 49L347.5 45.8L349 49.7L350.5 53.6L346.4 52.9L342.3 52.3Z" stroke="url(#paint8_linear_1_28)" stroke-width="1.2573" stroke-miterlimit="10"/>
<path d="M351.3 12.3L353.9 8.99999L356.5 5.79999L358 9.69999L359.5 13.6L355.4 12.9L351.3 12.3Z" stroke="url(#paint9_linear_1_28)" stroke-width="1.2573" stroke-miterlimit="10"/>
<defs>
<linearGradient id="paint0_linear_1_28" x1="74.9905" y1="221.407" x2="308.826" y2="85.4049" gradientUnits="userSpaceOnUse">
<stop stop-color="#FC887B"/>
<stop offset="0.9959" stop-color="#FFDD95"/>
</linearGradient>
<linearGradient id="paint1_linear_1_28" x1="31.5512" y1="305.897" x2="207.819" y2="33.7962" gradientUnits="userSpaceOnUse">
<stop stop-color="#86E3CE"/>
<stop offset="1" stop-color="#D0E6A5"/>
</linearGradient>
<linearGradient id="paint2_linear_1_28" x1="334.595" y1="202.736" x2="366.209" y2="202.736" gradientUnits="userSpaceOnUse">
<stop stop-color="#86E3CE"/>
<stop offset="1" stop-color="#D0E6A5"/>
</linearGradient>
<linearGradient id="paint3_linear_1_28" x1="347.519" y1="177.524" x2="364.722" y2="177.524" gradientUnits="userSpaceOnUse">
<stop stop-color="#86E3CE"/>
<stop offset="1" stop-color="#D0E6A5"/>
</linearGradient>
<linearGradient id="paint4_linear_1_28" x1="152" y1="324" x2="180" y2="324" gradientUnits="userSpaceOnUse">
<stop stop-color="#86E3CE"/>
<stop offset="1" stop-color="#D0E6A5"/>
</linearGradient>
<linearGradient id="paint5_linear_1_28" x1="180" y1="340" x2="190" y2="340" gradientUnits="userSpaceOnUse">
<stop stop-color="#86E3CE"/>
<stop offset="1" stop-color="#D0E6A5"/>
</linearGradient>
<linearGradient id="paint6_linear_1_28" x1="166" y1="350" x2="174" y2="350" gradientUnits="userSpaceOnUse">
<stop stop-color="#86E3CE"/>
<stop offset="1" stop-color="#D0E6A5"/>
</linearGradient>
<linearGradient id="paint7_linear_1_28" x1="314.833" y1="30.5" x2="344.167" y2="30.5" gradientUnits="userSpaceOnUse">
<stop stop-color="#86E3CE"/>
<stop offset="1" stop-color="#D0E6A5"/>
</linearGradient>
<linearGradient id="paint8_linear_1_28" x1="347.465" y1="44.4793" x2="346.314" y2="53.6688" gradientUnits="userSpaceOnUse">
<stop stop-color="#86E3CE"/>
<stop offset="1" stop-color="#D0E6A5"/>
</linearGradient>
<linearGradient id="paint9_linear_1_28" x1="356.463" y1="4.48069" x2="355.312" y2="13.6701" gradientUnits="userSpaceOnUse">
<stop stop-color="#86E3CE"/>
<stop offset="1" stop-color="#D0E6A5"/>
</linearGradient>
</defs>
</svg>
