<?xml version="1.0" encoding="iso-8859-1"?>
<!-- Generator: Adobe Illustrator 19.0.0, SVG Export Plug-In . SVG Version: 6.00 Build 0)  -->
<svg version="1.1" id="Layer_1" xmlns="http://www.w3.org/2000/svg" xmlns:xlink="http://www.w3.org/1999/xlink" x="0px" y="0px"
	 viewBox="0 0 512 512" style="enable-background:new 0 0 512 512;" xml:space="preserve">
<g>
	<path style="fill:#8AACAD;" d="M189.536,24.931c0,7.376-5.98,13.357-13.357,13.357h-56.304c-7.376,0-13.357-5.98-13.357-13.357
		V13.357C106.518,5.98,112.499,0,119.875,0h56.304c7.376,0,13.357,5.979,13.357,13.357V24.931z"/>
	<path style="fill:#8AACAD;" d="M207.889,498.643c0,7.376-5.979,13.357-13.357,13.357h-74.657c-7.376,0-13.357-5.98-13.357-13.357
		V487.07c0-7.376,5.98-13.357,13.357-13.357h74.657c7.377,0,13.357,5.98,13.357,13.357V498.643z"/>
</g>
<path style="fill:#73C470;" d="M378.769,0H151.249v512h75.706h26.713h125.101c14.755,0,26.713-11.96,26.713-26.713V172.522v-25.6
	V26.713C405.482,11.96,393.523,0,378.769,0z"/>
<g>
	<path style="fill:#EBF25F;" d="M324.557,104.023h-92.383c-3.074,0-5.565,2.492-5.565,5.565v40.07c0,3.073,2.491,5.565,5.565,5.565
		h92.383c3.074,0,5.565-2.492,5.565-5.565v-40.07C330.122,106.514,327.63,104.023,324.557,104.023z"/>
	<path style="fill:#EBF25F;" d="M324.557,231.304h-92.383c-3.074,0-5.565,2.492-5.565,5.565v40.07c0,3.073,2.491,5.565,5.565,5.565
		h92.383c3.074,0,5.565-2.492,5.565-5.565v-40.07C330.122,233.795,327.63,231.304,324.557,231.304z"/>
	<path style="fill:#EBF25F;" d="M324.557,358.585h-92.383c-3.074,0-5.565,2.492-5.565,5.565v40.07c0,3.073,2.491,5.565,5.565,5.565
		h92.383c3.074,0,5.565-2.492,5.565-5.565v-40.07C330.122,361.077,327.63,358.585,324.557,358.585z"/>
</g>
<rect x="151.251" style="fill:#547475;" width="38.286" height="512"/>
<g>
	<circle style="fill:#DBDDDD;" cx="359.836" cy="45.657" r="16.325"/>
	<circle style="fill:#DBDDDD;" cx="359.836" cy="470.773" r="16.325"/>
</g>
<g>
	<path style="fill:#547475;" d="M278.365,116.128c-4.61,0-8.348-3.738-8.348-8.348V89.415c0-4.61,3.738-8.348,8.348-8.348
		s8.348,3.738,8.348,8.348v18.365C286.713,112.391,282.975,116.128,278.365,116.128z"/>
	<path style="fill:#547475;" d="M306.192,116.128c-4.61,0-8.348-3.738-8.348-8.348V89.415c0-4.61,3.738-8.348,8.348-8.348
		c4.61,0,8.348,3.738,8.348,8.348v18.365C314.539,112.391,310.801,116.128,306.192,116.128z"/>
	<path style="fill:#547475;" d="M278.365,176.371c-4.61,0-8.348-3.738-8.348-8.348v-18.365c0-4.61,3.738-8.348,8.348-8.348
		s8.348,3.738,8.348,8.348v18.365C286.713,172.633,282.975,176.371,278.365,176.371z"/>
	<path style="fill:#547475;" d="M306.192,176.371c-4.61,0-8.348-3.738-8.348-8.348v-18.365c0-4.61,3.738-8.348,8.348-8.348
		c4.61,0,8.348,3.738,8.348,8.348v18.365C314.539,172.633,310.801,176.371,306.192,176.371z"/>
	<path style="fill:#547475;" d="M278.365,243.409c-4.61,0-8.348-3.738-8.348-8.348v-18.365c0-4.61,3.738-8.348,8.348-8.348
		s8.348,3.738,8.348,8.348v18.365C286.713,239.672,282.975,243.409,278.365,243.409z"/>
	<path style="fill:#547475;" d="M306.192,243.409c-4.61,0-8.348-3.738-8.348-8.348v-18.365c0-4.61,3.738-8.348,8.348-8.348
		c4.61,0,8.348,3.738,8.348,8.348v18.365C314.539,239.672,310.801,243.409,306.192,243.409z"/>
	<path style="fill:#547475;" d="M278.365,303.652c-4.61,0-8.348-3.738-8.348-8.348v-18.365c0-4.61,3.738-8.348,8.348-8.348
		s8.348,3.738,8.348,8.348v18.365C286.713,299.914,282.975,303.652,278.365,303.652z"/>
	<path style="fill:#547475;" d="M306.192,303.652c-4.61,0-8.348-3.738-8.348-8.348v-18.365c0-4.61,3.738-8.348,8.348-8.348
		c4.61,0,8.348,3.738,8.348,8.348v18.365C314.539,299.914,310.801,303.652,306.192,303.652z"/>
	<path style="fill:#547475;" d="M278.365,370.69c-4.61,0-8.348-3.738-8.348-8.348v-18.365c0-4.61,3.738-8.348,8.348-8.348
		s8.348,3.738,8.348,8.348v18.365C286.713,366.953,282.975,370.69,278.365,370.69z"/>
	<path style="fill:#547475;" d="M306.192,370.69c-4.61,0-8.348-3.738-8.348-8.348v-18.365c0-4.61,3.738-8.348,8.348-8.348
		c4.61,0,8.348,3.738,8.348,8.348v18.365C314.539,366.953,310.801,370.69,306.192,370.69z"/>
	<path style="fill:#547475;" d="M278.365,430.933c-4.61,0-8.348-3.738-8.348-8.348V404.22c0-4.61,3.738-8.348,8.348-8.348
		s8.348,3.738,8.348,8.348v18.365C286.713,427.195,282.975,430.933,278.365,430.933z"/>
	<path style="fill:#547475;" d="M306.192,430.933c-4.61,0-8.348-3.738-8.348-8.348V404.22c0-4.61,3.738-8.348,8.348-8.348
		c4.61,0,8.348,3.738,8.348,8.348v18.365C314.539,427.195,310.801,430.933,306.192,430.933z"/>
</g>
<path style="fill:#EBF25F;" d="M380.551,104.279c-7.376,0-13.357,5.98-13.357,13.357v276.729c0,7.376,5.98,13.357,13.357,13.357
	h24.931V172.522v-25.6v-42.643H380.551z"/>
<g style="opacity:0.15;">
	<rect x="189.54" style="fill:#231F20;" width="17.809" height="512"/>
</g>
<g>
	<path style="fill:#547475;" d="M250.539,116.128c-4.61,0-8.348-3.738-8.348-8.348V89.415c0-4.61,3.738-8.348,8.348-8.348
		s8.348,3.738,8.348,8.348v18.365C258.887,112.391,255.149,116.128,250.539,116.128z"/>
	<path style="fill:#547475;" d="M250.539,176.371c-4.61,0-8.348-3.738-8.348-8.348v-18.365c0-4.61,3.738-8.348,8.348-8.348
		s8.348,3.738,8.348,8.348v18.365C258.887,172.633,255.149,176.371,250.539,176.371z"/>
	<path style="fill:#547475;" d="M250.539,243.409c-4.61,0-8.348-3.738-8.348-8.348v-18.365c0-4.61,3.738-8.348,8.348-8.348
		s8.348,3.738,8.348,8.348v18.365C258.887,239.672,255.149,243.409,250.539,243.409z"/>
	<path style="fill:#547475;" d="M250.539,303.652c-4.61,0-8.348-3.738-8.348-8.348v-18.365c0-4.61,3.738-8.348,8.348-8.348
		s8.348,3.738,8.348,8.348v18.365C258.887,299.914,255.149,303.652,250.539,303.652z"/>
	<path style="fill:#547475;" d="M250.539,370.69c-4.61,0-8.348-3.738-8.348-8.348v-18.365c0-4.61,3.738-8.348,8.348-8.348
		s8.348,3.738,8.348,8.348v18.365C258.887,366.953,255.149,370.69,250.539,370.69z"/>
	<path style="fill:#547475;" d="M250.539,430.933c-4.61,0-8.348-3.738-8.348-8.348V404.22c0-4.61,3.738-8.348,8.348-8.348
		s8.348,3.738,8.348,8.348v18.365C258.887,427.195,255.149,430.933,250.539,430.933z"/>
</g>
<g>
	<path style="opacity:0.15;fill:#231F20;enable-background:new    ;" d="M244.418,149.658v-40.07c0-3.073,2.491-5.565,5.565-5.565
		h-17.809c-3.074,0-5.565,2.492-5.565,5.565v40.07c0,3.073,2.491,5.565,5.565,5.565h17.809
		C246.909,155.223,244.418,152.731,244.418,149.658z"/>
	<path style="opacity:0.15;fill:#231F20;enable-background:new    ;" d="M244.418,276.939v-40.07c0-3.073,2.491-5.565,5.565-5.565
		h-17.809c-3.074,0-5.565,2.492-5.565,5.565v40.07c0,3.073,2.491,5.565,5.565,5.565h17.809
		C246.909,282.504,244.418,280.012,244.418,276.939z"/>
	<path style="opacity:0.15;fill:#231F20;enable-background:new    ;" d="M244.418,404.22v-40.07c0-3.073,2.491-5.565,5.565-5.565
		h-17.809c-3.074,0-5.565,2.492-5.565,5.565v40.07c0,3.073,2.491,5.565,5.565,5.565h17.809
		C246.909,409.785,244.418,407.293,244.418,404.22z"/>
</g>
<g>
</g>
<g>
</g>
<g>
</g>
<g>
</g>
<g>
</g>
<g>
</g>
<g>
</g>
<g>
</g>
<g>
</g>
<g>
</g>
<g>
</g>
<g>
</g>
<g>
</g>
<g>
</g>
<g>
</g>
</svg>
